<?xml version="1.0" encoding="utf-8"?>
<!-- Generator: Adobe Illustrator 26.0.1, SVG Export Plug-In . SVG Version: 6.00 Build 0)  -->
<svg version="1.1" id="Layer_1" xmlns="http://www.w3.org/2000/svg" xmlns:xlink="http://www.w3.org/1999/xlink" x="0px" y="0px"
	 viewBox="0 0 700 400" style="enable-background:new 0 0 700 400;" xml:space="preserve">
<style type="text/css">
	.st0{fill:#F0565C;}
</style>
<g>
	<g transform="translate(151 263)">
		<path class="st0" d="M59.71-181.07c21.9,18.6,41.8,39.2,46.1,62.7c4.3,23.5-7,49.8-22.2,72c-15.2,22.1-34.2,40.1-58.1,51.9
			c-23.8,11.7-52.5,17.4-79.8,11c-27.2-6.4-53-24.9-69.1-50.2c-16.1-25.4-22.5-57.5-14.9-84.9s29.1-50,52.9-68.2
			s49.8-32.1,74.7-30.8C14.11-216.17,37.91-199.67,59.71-181.07z"/>
	</g>
	<g transform="translate(644 165)">
		<path class="st0" d="M26.11-140.47c10,8.1,17,19.9,19.4,32.7c2.4,12.8,0.3,26.6-6.3,37.7c-6.5,11.2-17.4,19.8-30.2,25.4
			c-12.8,5.7-27.5,8.5-40,4.3c-12.6-4.1-23-15.1-29.2-27.7s-8.2-26.7-5.9-40.2c2.2-13.4,8.7-26.3,18.8-34.4
			c10.2-8,23.9-11.4,37.3-10.8C3.31-152.97,16.21-148.67,26.11-140.47z"/>
	</g>
	<g transform="translate(424 422)">
		<path class="st0" d="M31.21-147.87c12.6,11.6,23.6,24,28.1,39.1c4.4,15,2.3,32.8-6.5,45.2c-8.9,12.4-24.5,19.5-40.2,24.5
			c-15.8,4.9-31.6,7.7-46.1,3.7c-14.5-4-27.6-14.7-37-28.7s-15.1-31.3-12.2-46.9c2.9-15.5,14.4-29.5,28-40.8
			c13.7-11.4,29.4-20.2,44.3-19.2C4.51-170.07,18.71-159.37,31.21-147.87z"/>
	</g>
</g>
</svg>
