<?xml version="1.0" encoding="utf-8"?>
<!-- Generator: Adobe Illustrator 26.0.1, SVG Export Plug-In . SVG Version: 6.00 Build 0)  -->
<svg version="1.1" id="Layer_1" xmlns="http://www.w3.org/2000/svg" xmlns:xlink="http://www.w3.org/1999/xlink" x="0px" y="0px"
	 viewBox="0 0 1440 400" style="enable-background:new 0 0 1440 400;" xml:space="preserve">
<style type="text/css">
	.st0{display:none;}
	.st1{display:inline;fill:#F0565C;}
	.st2{display:inline;fill:#F49773;}
	.st3{display:inline;fill:#FFCBB7;}
	.st4{fill:#F0565C;}
	.st5{fill:#F49773;}
	.st6{fill:#FFCBB7;}
</style>
<g id="top" class="st0">
	<path class="st1" d="M1440,252v148H0v-83l30,0.3c30,0.4,90,1,150-9.5s120-32.1,180-47.3s120-23.8,180-26.2c60-2.3,120,1.7,180,15.2
		s120,36.5,180,46.7c60,10.1,120,7.5,180-9.2s120-47.3,180-55.5s120,6.2,150,13.3L1440,252z"/>
	<path class="st2" d="M1440,177v75l-30-7.2c-30-7.1-90-21.5-150-13.3s-120,38.8-180,55.5s-120,19.3-180,9.2
		C840,286,780,263,720,249.5S600,232,540,234.3c-60,2.4-120,11-180,26.2c-60,15.2-120,36.8-180,47.3s-120,9.9-150,9.5L0,317V207
		l30-6.7c30-6.6,90-20,150-26.6c60-6.7,120-6.7,180,0.5c60,7.1,120,21.5,180,29.3s120,9.2,180-0.8s120-31.4,180-29.9
		s120,25.9,180,32.9s120-3.4,180-11c60-7.7,120-12.7,150-15.2L1440,177z"/>
	<path class="st3" d="M1440,148v29l-30,2.5c-30,2.5-90,7.5-150,15.2c-60,7.6-120,18-180,11s-120-31.4-180-32.9s-120,19.9-180,29.9
		s-120,8.6-180,0.8s-120-22.2-180-29.3c-60-7.2-120-7.2-180-0.5c-60,6.6-120,20-150,26.6L0,207v-85h30c30,0,90,0,150-9.7
		c60-9.6,120-29,180-34.5s120,2.9,180,9.2s120,10.7,180,17s120,14.7,180,12.8c60-1.8,120-13.8,180-18.1c60-4.4,120-1,180,8.5
		s120,25.1,150,33L1440,148z"/>
</g>
<g id="bottom">
	<path class="st4" d="M1440,0v263.4l-29.9,12.8c-29.8,12.8-89.6,38.4-149.6,41.1c-60,2.6-120.2-17.6-180.2-20.8
		c-60-3.2-119.8,10.6-179.8,20.5s-120.2,15.7-180.2,6.7c-60-9.1-119.8-33.1-179.8-38.7s-120.2,7.2-180.2,18.4
		c-60,11.2-119.8,20.8-179.8,21.6s-120.2-7.2-150.4-11.2l-30.1-4V0H1440z"/>
	<path class="st5" d="M1440,187.2v76.2l-29.9,12.8c-29.8,12.8-89.6,38.4-149.6,41.1c-60,2.6-120.2-17.6-180.2-20.8
		c-60-3.2-119.8,10.6-179.8,20.5s-120.2,15.7-180.2,6.7c-60-9.1-119.8-33.1-179.8-38.7s-120.2,7.2-180.2,18.4
		c-60,11.2-119.8,20.8-179.8,21.6s-120.2-7.2-150.4-11.2l-30.1-4V150.4l30.1-8.5c30.2-8.6,90.4-25.6,150.4-32.6
		c60-6.9,119.8-3.7,179.8,16.6c60,20.2,120.2,57.6,180.2,77c60,19.5,119.8,21.1,179.8,2.2c60-19,120.2-58.4,180.2-81.9
		s119.8-30.9,179.8-15.5c60,15.5,120.2,53.9,180.2,71c60,17,119.8,12.8,149.6,10.6L1440,187.2z"/>
	<path class="st6" d="M1433.9,266l-23.8,10.2c-29.8,12.8-89.6,38.4-149.6,41.1c-60,2.6-120.2-17.6-180.2-20.8
		c-60-3.2-119.8,10.6-179.8,20.5s-120.2,15.7-180.2,6.7c-60-9.1-119.8-33.1-179.8-38.7s-120.2,7.2-180.2,18.4
		c-60,11.2-119.8,20.8-179.8,21.6s-120.2-7.2-150.4-11.2l-30.1-4V207.4l30.1,5.3c30.2,5.4,90.4,16,150.4,28s119.8,25.4,179.8,18.7
		s120.2-33.3,180.2-51.5c60-18.1,119.8-27.7,179.8-32.5c60-4.8,120.2-4.8,180.2,5.1c60,9.8,119.8,29.6,179.8,42.6
		c60,13.1,120.2,19.5,180.2,25.6c60,6.2,119.8,12,149.6,15L1433.9,266z"/>
</g>
</svg>
