<?xml version="1.0" encoding="utf-8"?>
<!-- Generator: Adobe Illustrator 26.0.1, SVG Export Plug-In . SVG Version: 6.00 Build 0)  -->
<svg version="1.1" id="Layer_2" xmlns="http://www.w3.org/2000/svg" xmlns:xlink="http://www.w3.org/1999/xlink" x="0px" y="0px"
	 viewBox="0 0 1440 400" style="enable-background:new 0 0 1440 400;" xml:space="preserve" preserveAspectRatio="none">
<style type="text/css">
	.st0{fill:#F0565C;}
	.st1{fill:#F49773;}
	.st2{fill:#FFCBB7;}
</style>
<path class="st0" d="M1440,0v263.4l-29.9,12.8c-29.8,12.8-89.6,38.4-149.6,41.1c-60,2.6-120.2-17.6-180.2-20.8
	c-60-3.2-119.8,10.6-179.8,20.5s-120.2,15.7-180.2,6.7c-60-9.1-119.8-33.1-179.8-38.7s-120.2,7.2-180.2,18.4
	c-60,11.2-119.8,20.8-179.8,21.6s-120.2-7.2-150.4-11.2l-30.1-4V0H1440z"/>
<path class="st1" d="M1440,187.2v76.2l-29.9,12.8c-29.8,12.8-89.6,38.4-149.6,41.1c-60,2.6-120.2-17.6-180.2-20.8
	c-60-3.2-119.8,10.6-179.8,20.5s-120.2,15.7-180.2,6.7c-60-9.1-119.8-33.1-179.8-38.7s-120.2,7.2-180.2,18.4
	c-60,11.2-119.8,20.8-179.8,21.6s-120.2-7.2-150.4-11.2l-30.1-4V150.4l30.1-8.5c30.2-8.6,90.4-25.6,150.4-32.6
	c60-6.9,119.8-3.7,179.8,16.6c60,20.2,120.2,57.6,180.2,77c60,19.5,119.8,21.1,179.8,2.2c60-19,120.2-58.4,180.2-81.9
	s119.8-30.9,179.8-15.5c60,15.5,120.2,53.9,180.2,71c60,17,119.8,12.8,149.6,10.6L1440,187.2z"/>
<path class="st2" d="M1433.9,266l-23.8,10.2c-29.8,12.8-89.6,38.4-149.6,41.1c-60,2.6-120.2-17.6-180.2-20.8
	c-60-3.2-119.8,10.6-179.8,20.5s-120.2,15.7-180.2,6.7c-60-9.1-119.8-33.1-179.8-38.7s-120.2,7.2-180.2,18.4
	c-60,11.2-119.8,20.8-179.8,21.6s-120.2-7.2-150.4-11.2l-30.1-4V207.4l30.1,5.3c30.2,5.4,90.4,16,150.4,28s119.8,25.4,179.8,18.7
	s120.2-33.3,180.2-51.5c60-18.1,119.8-27.7,179.8-32.5s120.2-4.8,180.2,5.1c60,9.8,119.8,29.6,179.8,42.6
	c60,13.1,120.2,19.5,180.2,25.6c60,6.2,119.8,12,149.6,15L1433.9,266z"/>
</svg>
