<?xml version="1.0" encoding="utf-8"?>
<!-- Generator: Adobe Illustrator 26.0.1, SVG Export Plug-In . SVG Version: 6.00 Build 0)  -->
<svg version="1.1" id="Layer_1" xmlns="http://www.w3.org/2000/svg" xmlns:xlink="http://www.w3.org/1999/xlink" x="0px" y="0px"
	 viewBox="0 0 1440 330" style="enable-background:new 0 0 1440 330;" xml:space="preserve" preserveAspectRatio="none">
<style type="text/css">
	.st0{fill:#F49773;}
	.st1{fill:#F37964;}
	.st2{fill:#F0565C;}
</style>
<path class="st0" d="M0,115.22l30-18.8c30-18.9,90-56.5,150-56.4c60,0.2,120,38.2,180,50.4c60,12.1,120-1.5,180-20.5
	s120-43.4,180-39.7s120,35.3,180,36.7c60,1.3,120-27.7,180-24.2s120,39.5,180,52.7c60,13.1,120,3.5,150-1.4l30-4.8v241h-30
	c-30,0-90,0-150,0s-120,0-180,0s-120,0-180,0s-120,0-180,0s-120,0-180,0s-120,0-180,0s-120,0-180,0s-120,0-150,0H0V115.22z"/>
<path class="st1" d="M0,115.22l30-4.3c30-4.4,90-13,150-12.9c60,0.2,120,9.2,180,23c60,13.9,120,32.5,180,33.5s120-15.6,180-10.6
	s120,31.6,180,34.1s120-19.1,180-20c60-0.8,120,19.2,180,22.9c60,3.6,120-9,150-15.4l30-6.3v171h-30c-30,0-90,0-150,0s-120,0-180,0
	s-120,0-180,0s-120,0-180,0s-120,0-180,0s-120,0-180,0s-120,0-180,0s-120,0-150,0H0V115.22z"/>
<path class="st2" d="M0,215.22l30,1.8c30,1.9,90,5.5,150,8.4c60,2.8,120,4.8,180,3.6c60-1.1,120-5.5,180-12.6
	c60-7.2,120-17.2,180-17.7s120,8.5,180,18.7c60,10.1,120,21.5,180,19.3s120-17.8,180-25.5s120-7.3,150-7.2l30,0.2v126h-30
	c-30,0-90,0-150,0s-120,0-180,0s-120,0-180,0s-120,0-180,0s-120,0-180,0s-120,0-180,0s-120,0-180,0s-120,0-150,0H0V215.22z"/>
</svg>
