<?xml version="1.0" encoding="utf-8"?>
<!-- Generator: Adobe Illustrator 26.0.1, SVG Export Plug-In . SVG Version: 6.00 Build 0)  -->
<svg version="1.1" id="Layer_1" xmlns="http://www.w3.org/2000/svg" xmlns:xlink="http://www.w3.org/1999/xlink" x="0px" y="0px"
	 viewBox="0 0 96 96" style="enable-background:new 0 0 96 96;" xml:space="preserve">
<style type="text/css">
	.st0{fill:#25D366;}
</style>
<path class="st0" d="M48,8c-22,0-40,17.9-40,39.9c0,7,1.8,13.9,5.3,20L8,88l20.9-4.9c5.8,3.2,12.4,4.9,19.1,4.9h0
	C70.1,87.9,88,70,88,48c0-10.7-4.1-20.7-11.7-28.3C68.8,12.2,58.7,8,48,8z M48,16c8.5,0,16.6,3.3,22.6,9.4c6,6,9.4,14.1,9.3,22.6
	c0,17.6-14.3,31.9-32,31.9c-5.3,0-10.6-1.3-15.3-3.9l-2.7-1.5l-3,0.7l-7.9,1.9l1.9-7.1l0.9-3.2l-1.7-2.9c-2.8-4.8-4.3-10.4-4.3-16
	C16.1,30.3,30.4,16,48,16z M33.9,29.5c-0.7,0-1.7,0.2-2.7,1.2c-0.9,1-3.5,3.4-3.5,8.3s3.6,9.7,4.1,10.3c0.5,0.7,6.9,11.1,17.1,15.1
	c8.4,3.3,10.1,2.7,12,2.5c1.8-0.2,5.9-2.4,6.7-4.7c0.8-2.3,0.8-4.3,0.6-4.8c-0.2-0.4-0.9-0.7-1.9-1.2c-1-0.5-5.9-2.9-6.8-3.2
	s-1.6-0.5-2.2,0.5c-0.7,1-2.6,3.2-3.2,3.9c-0.6,0.7-1.2,0.8-2.2,0.3c-1-0.5-4.2-1.6-8-5c-3-2.6-5-5.9-5.6-6.9c-0.6-1-0.1-1.5,0.4-2
	c0.4-0.4,1-1.2,1.5-1.8c0.5-0.6,0.7-1,1-1.7c0.3-0.7,0.2-1.2-0.1-1.7c-0.2-0.5-2.2-5.4-3.1-7.4c-0.7-1.7-1.5-1.7-2.2-1.7
	C35.2,29.5,34.6,29.5,33.9,29.5z"/>
</svg>
