<?xml version="1.0" encoding="utf-8"?>
<!-- Generator: Adobe Illustrator 26.0.1, SVG Export Plug-In . SVG Version: 6.00 Build 0)  -->
<svg version="1.1" xmlns="http://www.w3.org/2000/svg" xmlns:xlink="http://www.w3.org/1999/xlink" x="0px" y="0px"
	 viewBox="0 0 1440 400" style="enable-background:new 0 0 1440 400;" xml:space="preserve">
<style type="text/css">
	.st0{fill:#F0565C;}
	.st1{fill:#F49773;}
	.st2{fill:#FFCBB7;}
	.st3{display:none;}
	.st4{display:inline;fill:#F0565C;}
	.st5{display:inline;fill:#9E76DD;}
	.st6{display:inline;fill:#D1B9EF;}
</style>
<g id="top">
	<path class="st0" d="M1440,252v148H0v-83l30,0.3c30,0.4,90,1,150-9.5s120-32.1,180-47.3s120-23.8,180-26.2c60-2.3,120,1.7,180,15.2
		s120,36.5,180,46.7c60,10.1,120,7.5,180-9.2s120-47.3,180-55.5s120,6.2,150,13.3L1440,252z"/>
	<path class="st1" d="M1440,177v75l-30-7.2c-30-7.1-90-21.5-150-13.3s-120,38.8-180,55.5s-120,19.3-180,9.2
		C840,286,780,263,720,249.5S600,232,540,234.3c-60,2.4-120,11-180,26.2s-120,36.8-180,47.3s-120,9.9-150,9.5L0,317V207l30-6.7
		c30-6.6,90-20,150-26.6c60-6.7,120-6.7,180,0.5c60,7.1,120,21.5,180,29.3s120,9.2,180-0.8s120-31.4,180-29.9s120,25.9,180,32.9
		s120-3.4,180-11c60-7.7,120-12.7,150-15.2L1440,177z"/>
	<path class="st2" d="M1440,148v29l-30,2.5c-30,2.5-90,7.5-150,15.2c-60,7.6-120,18-180,11s-120-31.4-180-32.9s-120,19.9-180,29.9
		s-120,8.6-180,0.8s-120-22.2-180-29.3c-60-7.2-120-7.2-180-0.5c-60,6.6-120,20-150,26.6L0,207v-85h30c30,0,90,0,150-9.7
		c60-9.6,120-29,180-34.5s120,2.9,180,9.2s120,10.7,180,17s120,14.7,180,12.8c60-1.8,120-13.8,180-18.1c60-4.4,120-1,180,8.5
		s120,25.1,150,33L1440,148z"/>
</g>
<g id="bottom" class="st3">
	<path class="st4" d="M1440,0v263.4l-29.92,12.8c-29.76,12.8-89.6,38.4-149.6,41.12c-60,2.56-120.16-17.6-180.16-20.8
		c-60-3.2-119.84,10.56-179.84,20.48c-60,9.92-120.16,15.68-180.16,6.72c-60-9.12-119.84-33.12-179.84-38.72
		c-60-5.6-120.16,7.2-180.16,18.4c-60,11.2-119.84,20.8-179.84,21.6s-120.16-7.2-150.4-11.2L0,309.8V0H1440z"/>
	<path class="st5" d="M1440,187.2v76.2l-29.92,12.8c-29.76,12.8-89.6,38.4-149.6,41.12c-60,2.56-120.16-17.6-180.16-20.8
		c-60-3.2-119.84,10.56-179.84,20.48c-60,9.92-120.16,15.68-180.16,6.72c-60-9.12-119.84-33.12-179.84-38.72
		c-60-5.6-120.16,7.2-180.16,18.4c-60,11.2-119.84,20.8-179.84,21.6s-120.16-7.2-150.4-11.2L0,309.8V150.4l30.08-8.48
		c30.24-8.64,90.4-25.6,150.4-32.64c60-6.88,119.84-3.68,179.84,16.64c60,20.16,120.16,57.6,180.16,76.96
		c60,19.52,119.84,21.12,179.84,2.24c60-19.04,120.16-58.4,180.16-81.92c60-23.52,119.84-30.88,179.84-15.52
		c60,15.52,120.16,53.92,180.16,71.04c60,16.96,119.84,12.8,149.6,10.56L1440,187.2z"/>
	<path class="st6" d="M1433.89,266.01l-23.81,10.19c-29.76,12.8-89.6,38.4-149.6,41.12c-60,2.56-120.16-17.6-180.16-20.8
		c-60-3.2-119.84,10.56-179.84,20.48c-60,9.92-120.16,15.68-180.16,6.72c-60-9.12-119.84-33.12-179.84-38.72
		c-60-5.6-120.16,7.2-180.16,18.4c-60,11.2-119.84,20.8-179.84,21.6s-120.16-7.2-150.4-11.2L0,309.8V207.4l30.08,5.28
		c30.24,5.44,90.4,16,150.4,28s119.84,25.44,179.84,18.72c60-6.72,120.16-33.28,180.16-51.52c60-18.08,119.84-27.68,179.84-32.48
		c60-4.8,120.16-4.8,180.16,5.12c60,9.76,119.84,29.6,179.84,42.56c60,13.12,120.16,19.52,180.16,25.6
		c60,6.24,119.84,12,149.6,15.04L1433.89,266.01z"/>
</g>
</svg>
